<svg xmlns="http://www.w3.org/2000/svg" viewBox="0 0 512 512" role="img" aria-labelledby="title desc">
  <title id="title">Perfumaria Prestígio 394</title>
  <desc id="desc">Símbolo com moldura de vitrine premium e monograma P394.</desc>
  <defs>
    <linearGradient id="frame" x1="0" x2="1" y1="0" y2="1">
      <stop offset="0%" stop-color="#1B1B1D"/>
      <stop offset="100%" stop-color="#111111"/>
    </linearGradient>
    <linearGradient id="accent" x1="0" x2="1" y1="0" y2="0">
      <stop offset="0%" stop-color="#B89A6A"/>
      <stop offset="100%" stop-color="#D7B98B"/>
    </linearGradient>
  </defs>
  <rect width="512" height="512" rx="120" fill="#FCFBF9"/>
  <rect x="36" y="36" width="440" height="440" rx="104" fill="url(#frame)"/>
  <rect x="72" y="72" width="368" height="368" rx="82" fill="#151517" stroke="rgba(255,255,255,0.08)"/>
  <rect x="112" y="112" width="288" height="288" rx="54" fill="#F7F3EF"/>
  <rect x="128" y="128" width="256" height="28" rx="14" fill="url(#accent)"/>
  <path d="M176 198h90c42 0 70 24 70 63 0 40-29 66-74 66h-37v60h-49V198Zm49 42v46h33c17 0 28-9 28-23 0-15-11-23-29-23h-32Z" fill="#111111"/>
  <text x="256" y="420" text-anchor="middle" font-family="Segoe UI, Arial, sans-serif" font-size="72" font-weight="800" letter-spacing="14" fill="#D72638">394</text>
</svg>
