<svg xmlns="http://www.w3.org/2000/svg" viewBox="0 0 512 512" role="img" aria-labelledby="title desc">
  <title id="title">Símbolo Prestígio 394</title>
  <desc id="desc">Ícone com placa preta arredondada, moldura dourada e monograma P com acento vermelho.</desc>
  <defs>
    <linearGradient id="goldFill" x1="0%" y1="0%" x2="100%" y2="100%">
      <stop offset="0%" stop-color="#FFF7D4" />
      <stop offset="45%" stop-color="#E7D8A5" />
      <stop offset="100%" stop-color="#CDB679" />
    </linearGradient>
    <linearGradient id="panelShade" x1="0%" y1="0%" x2="100%" y2="100%">
      <stop offset="0%" stop-color="#13161C" />
      <stop offset="100%" stop-color="#090B10" />
    </linearGradient>
    <filter id="shadowSoft" x="-20%" y="-20%" width="140%" height="140%">
      <feDropShadow dx="0" dy="24" stdDeviation="28" flood-color="#000000" flood-opacity="0.35" />
    </filter>
  </defs>

  <rect width="512" height="512" rx="116" fill="url(#panelShade)" filter="url(#shadowSoft)" />

  <path
    d="M162 412V168c0-56 38-94 94-94h0c56 0 94 38 94 94v224"
    fill="none"
    stroke="url(#goldFill)"
    stroke-linecap="square"
    stroke-linejoin="round"
    stroke-width="12"
  />

  <path
    d="M214 154h54c56 0 96 34 96 82 0 48-39 86-96 98l-54 12V154Z"
    fill="url(#goldFill)"
  />
  <path
    d="M235 176v181"
    fill="none"
    stroke="#0A0B10"
    stroke-linecap="square"
    stroke-width="12"
    opacity="0.2"
  />
  <path
    d="M214 372V154h22v218h-22Z"
    fill="url(#goldFill)"
  />
  <path
    d="M246 168h21c41 0 70 24 70 60 0 38-30 67-74 76l-17 4V168Z"
    fill="#0A0B10"
    opacity="0.92"
  />
  <path
    d="M246 168h18c40 0 67 22 67 56 0 34-27 58-69 67l-16 4V168Z"
    fill="url(#panelShade)"
  />

  <path
    d="M262 306c28-7 54-17 77-31"
    fill="none"
    stroke="url(#goldFill)"
    stroke-linecap="round"
    stroke-width="10"
  />

  <path
    d="M172 412h96"
    fill="none"
    stroke="url(#goldFill)"
    stroke-linecap="square"
    stroke-width="10"
  />
  <path
    d="M280 412h96"
    fill="none"
    stroke="#EB1C27"
    stroke-linecap="square"
    stroke-width="10"
  />
</svg>
